<svg width="29" height="35" viewBox="0 0 29 35" fill="none" xmlns="http://www.w3.org/2000/svg">
<path d="M23.9768 18.1555C23.9923 16.8474 24.3408 15.5645 24.99 14.4264C25.6391 13.2883 26.5677 12.3321 27.6892 11.6469C26.9818 10.6236 26.0419 9.78017 24.9454 9.18503C23.849 8.5899 22.6269 8.25975 21.3781 8.22133C18.7264 7.93148 16.0747 9.776 14.8284 9.776C13.5821 9.776 11.3812 8.22133 9.12722 8.22133C7.67862 8.27218 6.26785 8.69439 5.03193 9.44698C3.79601 10.1996 2.77695 11.257 2.07367 12.5165C-0.975795 17.7866 1.30467 25.4809 4.22155 29.7234C5.67999 31.805 7.40361 34.1239 9.52497 34.0448C11.6463 33.9658 12.5214 32.6482 15.1731 32.6482C17.8248 32.6482 18.5408 34.0448 20.8213 33.9921C23.1017 33.9394 24.6663 31.8841 26.1247 29.8024C27.1723 28.3213 27.9777 26.6849 28.5112 24.9539C27.1767 24.3752 26.0388 23.4258 25.2343 22.2197C24.4299 21.0136 23.9932 19.6023 23.9768 18.1555Z" fill="white"/>
<path d="M19.6539 5.58607C20.3288 4.82711 20.8452 3.9424 21.1729 2.98339C21.5007 2.02437 21.6333 1.01017 21.5632 -0.000244141C19.6046 0.224116 17.7997 1.16316 16.4984 2.63481C15.8606 3.35017 15.3727 4.18466 15.0631 5.08953C14.7535 5.99439 14.6284 6.95148 14.6952 7.90491C15.6415 7.89896 16.5752 7.68848 17.4315 7.28806C18.2878 6.88764 19.0461 6.30688 19.6539 5.58607Z" fill="white"/>
</svg>
