<svg width="360" height="63" viewBox="0 0 360 63" fill="none" xmlns="http://www.w3.org/2000/svg">
<g clip-path="url(#clip0_4274_20696)">
<path d="M257.892 10.843C257.201 10.843 256.61 10.843 256.012 10.843C249.482 10.843 242.959 10.8041 236.43 10.8755C235.021 10.8885 234.643 10.4472 234.682 9.13008C234.775 6.23621 234.709 3.33585 234.709 0.370605C253.986 0.370605 273.051 0.370605 292.221 0.370605C292.221 3.79653 292.221 7.17056 292.221 10.7652C284.596 10.7652 276.95 10.7652 269.198 10.7652C269.198 24.6116 269.198 38.231 269.198 52.0645C276.81 52.0645 284.456 52.0645 292.221 52.0645C292.221 55.6916 292.221 59.111 292.221 62.6278C273.104 62.6278 254.006 62.6278 234.822 62.6278C234.822 59.1434 234.822 55.724 234.822 52.1553C242.541 52.1553 250.153 52.1553 257.892 52.1553C257.892 38.3543 257.892 24.6895 257.892 10.843Z" fill="white"/>
<path d="M299.575 0.390137C322.423 0.390137 336.865 0.390137 359.601 0.390137C359.601 3.855 359.601 7.22902 359.601 10.8496C359.037 10.8496 358.486 10.8496 357.94 10.8496C336.332 10.8496 322.944 10.8366 301.336 10.882C299.898 10.882 299.482 10.4668 299.538 8.9874C299.65 6.14544 299.575 3.29699 299.575 0.390137Z" fill="white"/>
<path d="M197.445 58.0591C195.234 54.1229 193.31 51.4609 191.329 47.791C191.137 47.4402 191.329 46.7387 191.552 46.3101C199.038 32.0397 209.521 15.4451 217.064 1.20081C217.288 0.778616 217.901 0.317445 218.336 0.31095C222.741 0.245996 225.528 0.271978 230.259 0.271978C219.8 19.102 207.974 39.0926 197.445 58.0591Z" fill="white"/>
<path d="M141.774 49.3652C133.865 49.3652 126.318 49.3652 118.777 49.3652C112.206 49.3652 106.873 49.3913 100.297 49.3392C99.2094 49.3326 98.5371 49.6523 97.9233 50.7025C95.7779 54.3815 93.5039 57.9692 91.3293 61.6352C90.8441 62.4571 90.318 62.7702 89.4353 62.7572C85.9921 62.705 81.3116 62.7376 77.5527 62.7376C89.5833 42.9661 101.618 23.7189 113.601 4.02563C115.059 6.29279 116.855 9.14423 118.515 11.7625C119.818 13.8173 119.845 16.4418 118.531 18.4893C114.142 25.3276 109.882 31.2941 105.283 38.7196C106.096 38.7196 106.604 38.7196 107.113 38.7196C116.46 38.7196 124.57 38.7391 133.917 38.6935C134.859 38.6869 135.408 39.0001 135.923 39.8741C137.77 42.9726 139.699 46.0124 141.774 49.3652Z" fill="white"/>
<path d="M166.512 62.7446C162.876 62.7446 158.206 62.7965 154.903 62.6927C154.371 62.6797 153.693 62.1217 153.366 61.5961C145.842 49.6112 138.36 37.6004 130.866 25.5896C125.943 17.7057 121.027 9.81526 116.105 1.92485C115.83 1.49009 115.579 1.03588 115.135 0.29615C116.479 0.29615 117.608 0.29615 118.742 0.29615C121.027 0.29615 124.68 0.361038 126.96 0.270194C128.018 0.224773 128.608 0.640057 129.193 1.6004C140.943 20.8852 152.722 40.1505 164.495 59.4159C165.115 60.4281 165.729 61.4469 166.512 62.7446Z" fill="white"/>
<path d="M195.532 62.7446C191.862 62.7446 187.148 62.7965 183.815 62.6927C183.278 62.6797 182.593 62.1217 182.263 61.5961C174.669 49.6112 161.458 25.4523 161.458 25.4523C161.458 25.4523 152.481 9.81526 147.513 1.92485C147.235 1.49009 146.982 1.03588 146.533 0.29615C147.89 0.29615 149.029 0.29615 150.174 0.29615C152.481 0.29615 156.168 0.361038 158.469 0.270194C159.537 0.224773 160.133 0.640057 160.723 1.6004C172.582 20.8852 181.885 40.1505 193.768 59.4159C194.394 60.4281 194.741 61.4469 195.532 62.7446Z" fill="white"/>
<path d="M56.1256 25.9018C56.1256 29.477 56.1256 32.8575 56.1256 36.4456C42.2466 36.4456 26.5551 36.4456 12.5243 36.4456C12.5243 45.2051 12.5243 53.744 12.5243 62.3737C8.80207 62.3737 3.96654 62.3737 0.277344 62.3737C0.277344 41.6754 0.277344 20.9641 0.277344 0.135986C3.88074 0.135986 8.76248 0.135986 12.4913 0.135986C12.4913 8.7073 12.4913 17.2007 12.4913 25.9018C26.4891 25.9018 42.1806 25.9018 56.1256 25.9018Z" fill="white"/>
<path d="M59.8301 0.129639C63.4929 0.129639 68.4405 0.129639 72.0769 0.129639C72.0769 20.9058 72.0769 41.5912 72.0769 62.3738C68.4603 62.3738 63.5127 62.3738 59.8301 62.3738C59.8301 41.682 59.8301 20.9642 59.8301 0.129639Z" fill="white"/>
<rect x="324.289" y="13.7097" width="11.6942" height="49.0481" fill="white"/>
</g>
<defs>
<clipPath id="clip0_4274_20696">
<rect width="359.164" height="62.4908" fill="white" transform="translate(0.488281 0.266846)"/>
</clipPath>
</defs>
</svg>
